<svg xmlns="http://www.w3.org/2000/svg" width="16" height="16" viewBox="0 0 16 16">
    <g fill="none" fill-rule="evenodd">
        <circle cx="8" cy="8" r="8" fill="#F5831F"/>
        <path fill="#FFF" d="M5.086 5.927l-.26.695h3.291c-.078.291-.26.538-.546.717-.417.246-1.04.38-1.86.38h-.794v.819c.312 0 .598.078.859.224.22.134.442.325.663.583L8.767 12h1.926L7.909 8.964c-.3-.325-.507-.527-.611-.605.689-.124 1.248-.359 1.665-.718.312-.28.494-.616.572-1.02h1.392l.273-.694H9.561c-.065-.493-.26-.896-.572-1.232h1.938l.26-.695H5.073l-.273.695h1.353c.65 0 1.145.123 1.483.38.273.202.442.482.507.852H5.086z"/>
        <path fill-rule="nonzero" d="M0 0H16V16H0z"/>
    </g>
</svg>
