<?xml version="1.0" encoding="UTF-8"?>
<svg width="18px" height="18px" viewBox="0 0 18 18" version="1.1" xmlns="http://www.w3.org/2000/svg" xmlns:xlink="http://www.w3.org/1999/xlink">
    <!-- Generator: Sketch 52.5 (67469) - http://www.bohemiancoding.com/sketch -->
    <title>rupee_inactive</title>
    <desc>Created with Sketch.</desc>
    <g id="rupee_inactive" stroke="none" stroke-width="1" fill="none" fill-rule="evenodd">
        <g id="Group">
            <g>
                <g id="r" transform="translate(1.000000, 1.000000)">
                    <path d="M5.08617886,5.92717087 L4.82601626,6.62184874 L8.11707317,6.62184874 C8.03902439,6.91316527 7.85691057,7.15966387 7.57073171,7.33893557 C7.15447154,7.58543417 6.5300813,7.71988796 5.71056911,7.71988796 L4.91707317,7.71988796 L4.91707317,8.53781513 C5.22926829,8.53781513 5.51544715,8.6162465 5.77560976,8.76190476 C5.99674797,8.89635854 6.21788618,9.08683473 6.43902439,9.34453782 L8.76747967,12 L10.6926829,12 L7.90894309,8.96358543 C7.6097561,8.63865546 7.40162602,8.43697479 7.29756098,8.35854342 C7.98699187,8.23529412 8.54634146,8 8.96260163,7.64145658 C9.27479675,7.36134454 9.45691057,7.02521008 9.53495935,6.62184874 L10.9268293,6.62184874 L11.2,5.92717087 L9.56097561,5.92717087 C9.49593496,5.43417367 9.30081301,5.03081232 8.98861789,4.69467787 L10.9268293,4.69467787 L11.1869919,4 L5.07317073,4 L4.8,4.69467787 L6.15284553,4.69467787 C6.80325203,4.69467787 7.29756098,4.81792717 7.63577236,5.07563025 C7.90894309,5.27731092 8.07804878,5.55742297 8.14308943,5.92717087 L5.08617886,5.92717087 Z" id="₹-copy" fill="#BBBBBB"></path>
                    <circle id="Oval-2-Copy-2" stroke="#979797" stroke-width="0.5625" cx="8" cy="8" r="7.71875"></circle>
                </g>
                <rect id="Rectangle" fill-rule="nonzero" x="0" y="0" width="18" height="18"></rect>
            </g>
        </g>
    </g>
</svg>